<svg width="22" height="22" viewBox="0 0 22 22" fill="none" xmlns="http://www.w3.org/2000/svg">
<path fill-rule="evenodd" clip-rule="evenodd" d="M11 1.69231C5.8595 1.69231 1.69231 5.8595 1.69231 11C1.69231 16.1405 5.8595 20.3077 11 20.3077C16.1405 20.3077 20.3077 16.1405 20.3077 11C20.3077 5.8595 16.1405 1.69231 11 1.69231ZM0 11C0 4.92487 4.92487 0 11 0C17.0751 0 22 4.92487 22 11C22 17.0751 17.0751 22 11 22C4.92487 22 0 17.0751 0 11Z" fill="#A54AA5"/>
<path fill-rule="evenodd" clip-rule="evenodd" d="M9.30768 10.1538C9.30768 9.68645 9.68651 9.30762 10.1538 9.30762H11C11.4673 9.30762 11.8461 9.68645 11.8461 10.1538V15.2307C12.3135 15.2307 12.6923 15.6095 12.6923 16.0768C12.6923 16.5442 12.3135 16.923 11.8461 16.923H11C10.5327 16.923 10.1538 16.5442 10.1538 16.0768V10.9999C9.68651 10.9999 9.30768 10.6211 9.30768 10.1538Z" fill="#A54AA5"/>
<path d="M10.7885 7.61537C11.4894 7.61537 12.0577 7.04711 12.0577 6.34613C12.0577 5.64516 11.4894 5.0769 10.7885 5.0769C10.0875 5.0769 9.51923 5.64516 9.51923 6.34613C9.51923 7.04711 10.0875 7.61537 10.7885 7.61537Z" fill="#A54AA5"/>
</svg>
