<svg width="60" height="60" viewBox="0 0 60 60" fill="none" xmlns="http://www.w3.org/2000/svg">
<circle cx="30" cy="30" r="30" fill="#2ACE3D"/>
<path d="M17.135 37.2972C15.8182 35.0423 15.1252 32.4776 15.127 29.8663C15.133 16.7593 31.152 10.0203 40.827 19.3123L40.808 19.3613C42.2049 20.7323 43.3136 22.3686 44.0692 24.1741C44.8248 25.9797 45.212 27.918 45.208 29.8752C45.208 41.1852 32.922 48.2753 22.971 42.9363L15 44.9973L17.135 37.2972ZM23.799 40.4623C32.141 45.3323 42.689 39.3733 42.699 29.8323C42.7024 28.2053 42.3801 26.5941 41.7512 25.0936C41.1223 23.5931 40.1994 22.2336 39.037 21.0953C37.8754 19.9372 36.4968 19.0197 34.98 18.3954C33.4633 17.7712 31.8382 17.4524 30.198 17.4573C27.9802 17.4383 25.7981 18.0154 23.8798 19.1285C21.9614 20.2415 20.3774 21.8496 19.2933 23.7844C18.2092 25.7193 17.6649 27.9098 17.7173 30.1271C17.7696 32.3443 18.4168 34.5067 19.591 36.3882L19.891 36.8572L18.626 41.4142L23.347 40.1953L23.799 40.4623ZM32.52 36.4272C29.338 35.3422 27.597 34.5603 24.33 30.3143C22.667 27.9883 22.177 25.8013 24.12 23.6813C24.3394 23.4827 24.6044 23.3413 24.8915 23.2697C25.1786 23.198 25.479 23.1982 25.766 23.2703C25.989 23.2703 26.286 23.1813 26.575 23.8793C26.864 24.5773 27.595 26.3372 27.686 26.5162C27.7429 26.6098 27.7755 26.7161 27.7807 26.8254C27.786 26.9348 27.7637 27.0437 27.716 27.1423C27.045 28.4043 26.307 28.4903 26.659 29.0953C27.2004 30.0138 27.8744 30.8474 28.659 31.5693C29.5125 32.3251 30.4915 32.9258 31.552 33.3442C31.909 33.5052 32.119 33.4883 32.33 33.2553C32.541 33.0223 33.23 32.2182 33.467 31.8652C33.808 31.3572 34.085 31.5312 36.732 32.8412L36.743 32.7513C37.105 32.9133 37.343 33.0022 37.43 33.1642C37.528 33.7399 37.4524 34.3317 37.213 34.8643C36.9475 35.2996 36.5948 35.6753 36.1771 35.9678C35.7595 36.2604 35.2859 36.4634 34.786 36.5643C34.4996 36.6066 34.2105 36.6286 33.921 36.6303C33.4465 36.6347 32.9743 36.5655 32.521 36.4252L32.52 36.4272Z" fill="white"/>
</svg>
