<svg width="33" height="33" viewBox="0 0 33 33" fill="none" xmlns="http://www.w3.org/2000/svg">
<path d="M16.5 33C25.6127 33 33 25.6127 33 16.5C33 7.3873 25.6127 0 16.5 0C7.3873 0 0 7.3873 0 16.5C0 25.6127 7.3873 33 16.5 33Z" fill="#674957"/>
<path d="M8.57997 9.92606H19.08C19.9509 9.92579 20.7864 10.2713 21.4028 10.8867C22.0191 11.5021 22.3659 12.3371 22.367 13.2081V21.0861C22.3667 21.4342 22.2283 21.768 21.9821 22.0142C21.7359 22.2604 21.4021 22.3988 21.054 22.3991H10.554C9.68299 22.3993 8.84753 22.0538 8.23118 21.4384C7.61484 20.823 7.26803 19.988 7.26697 19.1171V11.2391C7.26723 10.8909 7.40565 10.5571 7.65183 10.3109C7.89801 10.0647 8.23182 9.92632 8.57997 9.92606ZM21.053 21.0861V13.2081C21.0522 12.6861 20.8445 12.1857 20.4754 11.8166C20.1063 11.4476 19.6059 11.2398 19.084 11.2391H8.57897V19.1171C8.57976 19.639 8.78746 20.1394 9.15655 20.5085C9.52564 20.8776 10.026 21.0853 10.548 21.0861H21.053Z" fill="#EBCEA5"/>
<path d="M26.306 20.7581C26.1916 20.758 26.0792 20.728 25.98 20.6711L21.38 18.0451C21.3051 18.0023 21.2394 17.9452 21.1866 17.8771C21.1338 17.809 21.095 17.7311 21.0723 17.6479C21.0495 17.5648 21.0434 17.478 21.0543 17.3925C21.0651 17.307 21.0927 17.2244 21.1355 17.1496C21.1782 17.0747 21.2353 17.009 21.3034 16.9562C21.3716 16.9034 21.4494 16.8646 21.5326 16.8418C21.6157 16.8191 21.7025 16.813 21.7881 16.8239C21.8736 16.8347 21.9561 16.8623 22.031 16.9051L25.644 18.9701V13.3551L22.031 15.4201C21.8798 15.5064 21.7005 15.5291 21.5326 15.4833C21.3646 15.4374 21.2218 15.3267 21.1355 15.1756C21.0491 15.0244 21.0264 14.8451 21.0723 14.6772C21.1181 14.5092 21.2288 14.3664 21.38 14.2801L25.98 11.6541C26.0798 11.5969 26.1929 11.567 26.3079 11.5673C26.4229 11.5677 26.5358 11.5982 26.6353 11.656C26.7348 11.7137 26.8173 11.7966 26.8746 11.8963C26.932 11.996 26.9621 12.109 26.962 12.2241V20.1021C26.9617 20.276 26.8925 20.4427 26.7695 20.5656C26.6466 20.6886 26.4799 20.7578 26.306 20.7581Z" fill="#EBCEA5"/>
</svg>
