<svg width="123" height="50" viewBox="0 0 123 50" fill="none" xmlns="http://www.w3.org/2000/svg">
<path d="M0 6.88257V35.2486H15.6875V33.3138H2.23642V6.88257H0Z" fill="white"/>
<path d="M23.8207 6.88251H21.5414V35.2486H23.8207V6.88251Z" fill="white"/>
<path d="M31.9291 6.88257V35.2486H47.6165V33.3138H34.1663V6.88257H31.9291Z" fill="white"/>
<path d="M53.301 6.88257V35.2486H68.9885V33.3138H55.5374V6.88257H53.301Z" fill="white"/>
<path d="M89.2084 6.88257L79.7709 20.6303L70.2905 6.88257H67.8319L78.588 22.814V35.2494H80.8673L80.8997 22.7561L91.4982 6.8833L89.2084 6.88257Z" fill="white"/>
<path d="M0.283875 40.5007H4.70027V41.075H0.983387V43.5609H4.30115V44.1246H0.983387V46.6593H4.85088V47.2337H0.283875V40.5007Z" fill="white"/>
<path d="M11.6972 45.6702C11.8889 46.0052 12.1692 46.2813 12.5075 46.4681C12.8457 46.6549 13.2289 46.7453 13.6151 46.7293C14.6166 46.7293 15.2092 46.2738 15.2092 45.5702C15.2092 44.8283 14.7138 44.5013 13.8305 44.1247L13.2379 43.8676C12.1837 43.4121 11.5368 42.9656 11.5368 42.026C11.5494 41.7922 11.61 41.5634 11.7149 41.354C11.8198 41.1445 11.9667 40.9588 12.1465 40.8083C12.3262 40.6579 12.5351 40.546 12.76 40.4795C12.9849 40.413 13.2211 40.3934 13.454 40.4219C13.8496 40.3901 14.2464 40.4653 14.6028 40.6395C14.9592 40.8137 15.2621 41.0805 15.4796 41.4119L14.9404 41.7283C14.7852 41.4824 14.5658 41.2834 14.3057 41.1526C14.0457 41.0219 13.7548 40.9644 13.4645 40.9864C12.7213 40.9864 12.2258 41.4119 12.2258 42.0065C12.2258 42.6492 12.6242 42.8972 13.518 43.2843L14.0993 43.5422C15.274 44.0473 15.9065 44.5419 15.9065 45.5514C15.9065 46.6609 14.9901 47.3141 13.6227 47.3141C13.1186 47.341 12.6167 47.229 12.1721 46.9904C11.7275 46.7518 11.3571 46.3957 11.1016 45.9611L11.6972 45.6702Z" fill="white"/>
<path d="M24.07 41.075H21.7974V40.5007H27.0323V41.075H24.7732V47.2337H24.0722L24.07 41.075Z" fill="white"/>
<path d="M33.6189 40.5007H38.0353V41.0751H34.3185V43.5609H37.637V44.1247H34.3185V46.6594H38.1859V47.2337H33.6189V40.5007ZM36.2544 38.5403H36.9977L36.1791 39.937H35.652L36.2544 38.5403Z" fill="white"/>
<path d="M46.661 41.075H44.3885V40.5007H49.6242V41.075H47.3651V47.2337H46.6648L46.661 41.075Z" fill="white"/>
<path d="M56.2559 40.5007H56.9667V47.2337H56.2559V40.5007Z" fill="white"/>
<path d="M63.7806 43.8676C63.7871 43.3953 63.8893 42.9291 64.081 42.4972C64.2728 42.0654 64.5501 41.6768 64.8964 41.3548C65.2426 41.0329 65.6506 40.7842 66.0957 40.6239C66.5408 40.4635 67.0138 40.3948 67.4862 40.4218C68.0297 40.4005 68.5711 40.5026 69.0693 40.7204C69.5676 40.9382 70.0099 41.2661 70.3628 41.6794L69.8235 42.0357C69.5366 41.697 69.1759 41.4282 68.769 41.2499C68.362 41.0715 67.9198 40.9883 67.4757 41.0066C67.0898 40.9953 66.7055 41.0619 66.346 41.2024C65.9865 41.3429 65.6591 41.5544 65.3834 41.8242C65.1077 42.094 64.8894 42.4165 64.7416 42.7725C64.5937 43.1285 64.5194 43.5106 64.523 43.896C64.5266 44.2814 64.608 44.6621 64.7625 45.0153C64.917 45.3685 65.1413 45.687 65.422 45.9516C65.7027 46.2163 66.034 46.4216 66.396 46.5553C66.7581 46.6891 67.1435 46.7485 67.5291 46.73C68.0015 46.7458 68.4712 46.6531 68.9021 46.4591C69.3329 46.265 69.7134 45.9748 70.0141 45.6108L70.5638 45.9678C70.1913 46.4113 69.7216 46.7634 69.1911 46.9969C68.6606 47.2303 68.0835 47.3388 67.5043 47.3141C67.0303 47.3438 66.5553 47.277 66.108 47.1178C65.6606 46.9586 65.2504 46.7103 64.9022 46.388C64.5539 46.0656 64.2749 45.676 64.0821 45.2427C63.8894 44.8094 63.7867 44.3416 63.7806 43.8676Z" fill="white"/>
<path d="M81.301 45.5739H77.9832L77.2611 47.2374H76.5502L79.6315 40.3459H79.6857L82.7768 47.2374H82.0337L81.301 45.5739ZM78.2415 44.9997H81.0419L79.6414 41.8019L78.2415 44.9997Z" fill="white"/>
<path d="M122.307 27.1115C122.224 26.7025 122.116 26.3298 122.012 25.9697C121.931 25.6931 121.855 25.4315 121.79 25.1549L121.756 25.0188C121.69 24.7497 121.621 24.4716 121.57 24.1919L121.474 23.7108L121.399 23.226C121.298 22.5838 121.251 21.9343 121.258 21.2843C121.265 20.9634 121.295 20.6433 121.348 20.3266C121.362 20.2424 121.377 20.1681 121.395 20.0967L121.4 20.0756C121.416 20.0072 121.433 19.9388 121.456 19.8697C121.495 19.732 121.55 19.5993 121.619 19.4743L121.635 19.4479C121.652 19.4186 121.662 19.3856 121.665 19.3517C121.669 19.2922 121.65 19.2333 121.611 19.188C121.572 19.1426 121.517 19.1145 121.457 19.1097C120.623 19.0528 119.785 19.0714 118.954 19.1653C118.125 19.2498 117.306 19.4077 116.505 19.6373C114.871 20.0738 113.368 20.8978 112.122 22.0391C110.846 23.2231 109.957 24.7634 109.571 26.459C109.22 28.1594 109.285 29.9191 109.76 31.5893C109.973 32.4125 110.252 33.217 110.596 33.9948C110.671 34.1617 110.741 34.3233 110.812 34.4826C110.909 34.6976 111.004 34.9088 111.095 35.1253C111.265 35.5312 111.41 35.9003 111.539 36.2529C111.82 37.0041 112.03 37.78 112.165 38.5704C112.203 38.8011 112.231 39.0379 112.25 39.2747C110.198 40.4755 108.047 41.4978 105.82 42.3304C105.803 42.2335 105.78 42.1376 105.753 42.0432C105.703 41.8782 105.642 41.7169 105.57 41.5606C105.428 41.2549 105.262 40.9604 105.076 40.6797C104.7 40.1296 104.279 39.6127 103.815 39.1349C103.354 38.6448 102.851 38.1893 102.376 37.7699C102.115 37.5406 101.833 37.3045 101.491 37.0302C101.807 36.1719 102.184 35.3374 102.62 34.533C102.983 33.8663 103.4 33.1755 103.86 32.4809C104.226 31.9224 104.607 31.3999 105.011 30.8466L105.257 30.5084C105.284 30.4708 105.308 30.4333 105.333 30.3942L105.373 30.3386C106.028 29.4715 106.571 28.526 106.99 27.5242C107.233 26.8982 107.403 26.2461 107.495 25.581C107.599 24.6786 107.544 23.765 107.332 22.8817C107.228 22.4417 107.084 22.0122 106.902 21.5985C106.723 21.1856 106.509 20.7887 106.263 20.4123C105.774 19.6641 105.183 18.9873 104.508 18.4009C103.841 17.8143 103.112 17.3006 102.336 16.8688C102.307 16.8538 102.275 16.8475 102.243 16.851C102.211 16.8545 102.181 16.8675 102.157 16.8884C102.126 16.9171 102.108 16.9567 102.105 16.9989C102.103 17.041 102.118 17.0823 102.146 17.1139C102.665 17.7263 103.143 18.3722 103.577 19.0473C104.015 19.7193 104.408 20.4202 104.752 21.1452C105.461 22.5693 105.873 24.1225 105.962 25.7104C105.987 26.4866 105.889 27.2618 105.672 28.0075C105.595 28.2688 105.502 28.5249 105.392 28.7742C105.253 28.8803 105.092 28.9533 104.921 28.9874C104.75 29.0215 104.573 29.016 104.404 28.9712C104.229 28.919 104.065 28.8377 103.918 28.7307C103.762 28.614 103.62 28.4806 103.493 28.333C103.221 28.0138 102.975 27.6724 102.76 27.3122C102.317 26.5728 101.929 25.8023 101.598 25.0068C100.92 23.4077 100.381 21.7534 99.987 20.0621C99.7884 19.22 99.6425 18.3664 99.5502 17.5063C99.447 16.6583 99.4541 15.8005 99.5713 14.9543C99.6313 14.5448 99.7526 14.1468 99.9313 13.7734C100.098 13.4154 100.363 13.1118 100.695 12.8976C100.87 12.7962 101.055 12.7138 101.247 12.6518C101.467 12.5714 101.665 12.5015 101.866 12.4173C102.232 12.2752 102.619 12.1069 103.081 11.8911C103.89 11.5191 104.647 11.041 105.33 10.4697C105.676 10.1786 105.975 9.83514 106.215 9.45187C106.335 9.25643 106.429 9.04616 106.495 8.82643C106.567 8.60309 106.586 8.36592 106.549 8.1341C106.545 8.11338 106.534 8.09497 106.517 8.08244C106.5 8.06991 106.479 8.0642 106.458 8.06647L106.419 8.07703L106.384 8.13566V8.16264C106.403 8.36673 106.375 8.57262 106.302 8.76403C106.231 8.96221 106.135 9.15027 106.016 9.32331C105.943 9.42766 105.865 9.52804 105.781 9.62401C105.62 9.79596 105.447 9.9564 105.264 10.1043C104.815 10.4784 104.289 10.749 103.723 10.8966C103.459 10.9652 103.181 10.9547 102.924 10.8665C102.683 10.7671 102.49 10.5786 102.385 10.3404C102.341 10.2452 102.304 10.1473 102.272 10.0472L102.232 9.93067C102.176 9.7799 102.109 9.63323 102.033 9.49169C101.955 9.34747 101.864 9.21035 101.762 9.08198C101.673 8.96984 101.572 8.86752 101.461 8.77679L101.13 7.75899C101.12 7.72891 101.104 7.70125 101.083 7.67759C101.062 7.65394 101.036 7.6348 101.007 7.62144C100.767 7.53937 100.559 7.38461 100.411 7.17869C100.389 7.14285 100.376 7.102 100.374 7.05996C100.372 7.01791 100.38 6.97606 100.399 6.93819C100.417 6.90496 100.438 6.8728 100.46 6.84194C100.477 6.81638 100.495 6.78935 100.513 6.76229C100.558 6.68712 100.599 6.6164 100.632 6.5495C100.705 6.40661 100.767 6.25836 100.817 6.10602C100.829 6.06768 100.844 6.00383 100.845 6.00233C100.922 5.70602 100.928 5.39542 100.861 5.09648L100.851 5.07766C100.579 4.75009 100.345 4.39248 100.155 4.01178C100.018 3.61798 99.9549 3.20238 99.9689 2.78577C99.9955 2.1615 100.119 1.54507 100.334 0.958372C100.41 1.18766 100.507 1.40962 100.624 1.62143C100.853 2.0469 101.161 2.42473 101.532 2.73466C101.899 3.03985 102.318 3.27639 102.769 3.43296C103.211 3.58579 103.671 3.68356 104.137 3.72393L104.198 3.72916L104.208 3.66906C104.217 3.60892 104.166 3.59384 104.116 3.58482C103.688 3.49688 103.271 3.35707 102.876 3.16841L102.769 3.11125C102.409 2.93942 102.072 2.72166 101.769 2.46333C101.449 2.16692 101.185 1.81584 100.99 1.42672C100.791 1.04149 100.66 0.624955 100.602 0.195387C100.597 0.147487 100.576 0.102754 100.542 0.0679319C100.509 0.0331098 100.465 0.0102 100.417 0.00269053C100.37 -0.00481896 100.321 0.00349154 100.278 0.0263646C100.236 0.0492377 100.202 0.0854144 100.182 0.129319C99.9909 0.542201 99.8328 0.969453 99.7091 1.40717C99.5878 1.85412 99.5233 2.31451 99.5171 2.77752C99.503 3.25089 99.5909 3.72179 99.7746 4.15841C99.9131 4.45206 100.09 4.72586 100.302 4.97251C100.372 5.05573 100.429 5.14862 100.472 5.24834C100.516 5.36518 100.541 5.48819 100.547 5.6129C100.551 5.74232 100.531 5.8713 100.487 5.99325C100.437 6.12315 100.376 6.24883 100.306 6.3691C100.272 6.4293 100.235 6.48778 100.195 6.54427C100.18 6.56607 100.164 6.58716 100.147 6.60896C100.115 6.65064 100.084 6.69403 100.056 6.73898C100.002 6.83362 99.9719 6.94032 99.9693 7.04941C99.9667 7.15849 99.9914 7.26645 100.041 7.36359C100.125 7.52739 100.247 7.6691 100.396 7.77706C100.5 7.85522 100.61 7.92462 100.725 7.98453L101.049 8.9805C101.063 9.02569 101.092 9.06516 101.13 9.09327L101.147 9.10529C101.252 9.17715 101.347 9.26286 101.43 9.36011C101.521 9.46423 101.604 9.57621 101.676 9.69466C101.749 9.81558 101.814 9.94113 101.87 10.0705C101.885 10.1073 101.9 10.1457 101.916 10.187C101.956 10.2952 102.002 10.4008 102.055 10.5034C102.209 10.8176 102.479 11.0601 102.808 11.18C103.05 11.2597 103.309 11.2781 103.561 11.2334C103.362 11.3334 103.15 11.4334 102.92 11.5341C102.462 11.7303 102.08 11.8814 101.715 12.0084C101.506 12.0836 101.291 12.155 101.101 12.2166C100.875 12.2819 100.657 12.3722 100.452 12.4857C100.035 12.737 99.6972 13.1 99.4772 13.5335C99.262 13.9486 99.1114 14.394 99.0306 14.8543C98.8795 15.7482 98.8451 16.6578 98.9282 17.5604C99.002 18.4511 99.1353 19.3358 99.3273 20.2086C99.7097 21.9475 100.259 23.6455 100.969 25.2788C101.321 26.1012 101.733 26.8971 102.2 27.6603C102.439 28.0511 102.711 28.4205 103.014 28.7645C103.177 28.9456 103.36 29.1085 103.558 29.2501C103.768 29.3951 104.002 29.5029 104.248 29.5688C104.481 29.6292 104.723 29.6387 104.96 29.5966C104.86 29.7597 104.757 29.9154 104.65 30.0604L103.922 31.0376C103.664 31.3977 103.437 31.7299 103.226 32.0539C102.771 32.7409 102.354 33.4518 101.975 34.1835C101.572 34.9617 101.228 35.7687 100.946 36.5979L100.935 36.5896L100.839 36.5145C99.8559 35.768 98.7881 35.0389 97.5728 34.2865L96.7346 33.7723C96.4432 33.6017 96.1609 33.4197 95.9245 33.2649C95.3982 32.9132 94.8912 32.5336 94.4057 32.1276C93.4394 31.3475 92.6492 30.3722 92.0871 29.2659C91.5521 28.1573 91.37 26.9118 91.5652 25.6968C91.7846 24.4462 92.2533 23.2522 92.9433 22.1856C93.2812 21.6382 93.6588 21.1161 94.0728 20.6236C94.4493 20.1685 94.8563 19.7395 95.2911 19.3397C96.0992 20.0567 96.7479 20.9348 97.1955 21.9173C97.6627 22.9461 97.9643 24.042 98.0894 25.1646C98.2208 26.2875 98.1844 27.4237 97.9816 28.5359C97.8859 29.0972 97.7544 29.6519 97.5878 30.1964C97.5381 30.3723 97.4794 30.549 97.4229 30.7227C97.3906 30.8211 97.3574 30.9188 97.3281 31.015L97.0269 31.8284C97.0137 31.8583 97.013 31.8922 97.0248 31.9226C97.0367 31.9531 97.0601 31.9776 97.0901 31.9908C97.1201 32.004 97.154 32.0047 97.1845 31.9928C97.215 31.981 97.2396 31.9576 97.2528 31.9277L97.2611 31.9103C97.3876 31.6608 97.5186 31.4022 97.6376 31.1398C97.6772 31.0446 97.7179 30.9492 97.7596 30.8534C97.8349 30.6835 97.9101 30.5069 97.9764 30.3273C98.1808 29.775 98.3491 29.21 98.4802 28.636C98.7512 27.4752 98.8202 26.2766 98.6843 25.0925C98.535 23.9083 98.1537 22.765 97.5622 21.7278C97.273 21.2154 96.9498 20.723 96.5946 20.2538C96.2422 19.7793 95.8442 19.3402 95.4064 18.9428C95.3735 18.9139 95.3312 18.8979 95.2874 18.8979C95.2436 18.8979 95.2013 18.9139 95.1684 18.9428C94.1574 19.8087 93.2546 20.793 92.4794 21.8744C91.6701 22.972 91.0934 24.2228 90.7844 25.5503C90.6378 26.2353 90.5951 26.9384 90.6579 27.6361C90.7286 28.3404 90.9125 29.0288 91.2023 29.6748C91.7975 30.9293 92.6753 32.0294 93.7671 32.889C94.2868 33.3197 94.8377 33.7114 95.4154 34.0609C95.9259 34.3774 96.4553 34.6563 96.9674 34.9254L97.1488 35.0209C98.3883 35.6816 99.4832 36.3281 100.494 36.9986C100.556 37.0392 100.616 37.0805 100.677 37.1226L100.757 37.1774C100.594 37.7343 100.468 38.3014 100.38 38.8748C100.098 40.5323 100.287 42.2354 100.924 43.7917C101.589 45.313 102.629 46.6416 103.947 47.6539C105.235 48.6734 106.69 49.464 108.247 49.9909C108.26 49.9955 108.273 49.9986 108.287 50H108.308C108.352 50.0002 108.395 49.985 108.429 49.9571C108.45 49.9408 108.468 49.9203 108.481 49.8969C108.494 49.8735 108.502 49.8477 108.504 49.8211C108.586 49.0173 108.793 48.2312 109.117 47.4908C109.458 46.7576 109.88 46.0651 110.376 45.4266C110.523 45.2296 110.674 45.0342 110.824 44.838C111.173 44.387 111.534 43.9165 111.855 43.4158C112.634 42.2666 113.037 40.9052 113.01 39.5182L113.048 39.4987C114.233 38.8659 115.38 38.1631 116.482 37.394C117.604 36.6237 118.642 35.7389 119.581 34.754C120.554 33.752 121.335 32.5799 121.884 31.2962C122.153 30.6348 122.331 29.9394 122.411 29.2297C122.484 28.5225 122.449 27.8082 122.307 27.1115ZM105.586 42.7416C105.606 42.7518 105.629 42.7577 105.652 42.7591C105.675 42.7605 105.698 42.7574 105.72 42.7499C106.357 42.5304 106.968 42.2883 107.591 42.0403C108.214 41.7922 108.833 41.5329 109.434 41.266C110.467 40.8112 111.392 40.3707 112.269 39.9227C112.267 40.2584 112.236 40.5933 112.178 40.9239C112.033 41.6991 111.745 42.4408 111.33 43.1114C111.043 43.594 110.703 44.0675 110.375 44.5261C110.23 44.7275 110.085 44.9312 109.942 45.1364C109.446 45.8203 109.029 46.5576 108.699 47.3345C108.406 48.044 108.215 48.7913 108.131 49.5542C107.452 49.325 106.794 49.0401 106.162 48.7025C105.453 48.3327 104.781 47.8973 104.155 47.4021C103.528 46.9088 102.962 46.3431 102.468 45.7168C101.979 45.0903 101.583 44.3959 101.294 43.6556C100.744 42.1623 100.623 40.5453 100.944 38.9869C101.035 38.5075 101.155 38.0343 101.305 37.5699C102.097 38.1229 102.843 38.7382 103.537 39.4101C103.998 39.8588 104.416 40.3511 104.782 40.8803C104.964 41.1412 105.121 41.4179 105.252 41.7072C105.317 41.8494 105.371 41.9962 105.414 42.1463C105.459 42.2864 105.484 42.4321 105.489 42.5792C105.488 42.6125 105.497 42.6454 105.515 42.6739C105.532 42.7024 105.557 42.7253 105.587 42.74L105.586 42.7416ZM120.99 19.711C120.957 19.7922 120.932 19.8741 120.905 19.9651C120.877 20.0493 120.855 20.1349 120.836 20.2215C120.757 20.5611 120.703 20.906 120.674 21.2535C120.625 21.939 120.632 22.6275 120.698 23.3117L120.747 23.822L120.817 24.3257C120.854 24.6204 120.908 24.915 120.961 25.1999L120.985 25.333C121.043 25.6562 121.116 25.9862 121.188 26.3049C121.263 26.6469 121.339 26.9694 121.389 27.2761C121.483 27.8905 121.494 28.5148 121.42 29.132C121.337 29.7509 121.176 30.357 120.942 30.9361C120.443 32.1115 119.745 33.1922 118.878 34.1308C117.149 35.9849 115.158 37.5766 112.968 38.8553C112.956 38.7162 112.942 38.5884 112.927 38.4674C112.81 37.6224 112.614 36.7901 112.342 35.9815C112.226 35.6177 112.088 35.2396 111.908 34.7916C111.819 34.5661 111.723 34.3406 111.629 34.1211C111.561 33.9595 111.492 33.8001 111.429 33.6438C111.121 32.9011 110.868 32.1374 110.669 31.3586C110.258 29.8238 110.19 28.2177 110.469 26.6537C110.746 25.0731 111.471 23.6046 112.556 22.4211C113.642 21.2377 115.044 20.3887 116.597 19.9741C117.706 19.6587 118.854 19.499 120.008 19.4998C120.359 19.4998 120.709 19.5146 121.055 19.5442C121.027 19.6006 121.005 19.6569 120.986 19.7103L120.99 19.711ZM106.607 25.6908C106.468 24.0252 105.978 22.4076 105.169 20.9438C104.549 19.7646 103.814 18.6495 102.975 17.6146C103.442 17.9196 103.882 18.2641 104.29 18.6444C104.927 19.2262 105.48 19.892 105.936 20.6236C106.163 20.9869 106.357 21.3692 106.518 21.7662C106.681 22.1606 106.807 22.5696 106.894 22.9877C107.072 23.8229 107.104 24.6823 106.989 25.5284C106.92 26.0657 106.781 26.5917 106.575 27.0927C106.625 26.6269 106.636 26.1576 106.607 25.69L106.607 25.6908Z" fill="white"/>
</svg>
